<svg width="31" height="31" viewBox="0 0 31 31" fill="none" xmlns="http://www.w3.org/2000/svg">
<path d="M6.45833 23.2499H24.5417V14.2483C24.5417 9.23275 20.4936 5.16659 15.5 5.16659C10.5064 5.16659 6.45833 9.23275 6.45833 14.2483V23.2499ZM15.5 2.58325C21.9196 2.58325 27.125 7.80546 27.125 14.2483V25.8333H3.875V14.2483C3.875 7.80546 9.08042 2.58325 15.5 2.58325ZM12.2708 27.1249H18.7292C18.7292 27.9813 18.389 28.8027 17.7834 29.4083C17.1778 30.0139 16.3564 30.3541 15.5 30.3541C14.6436 30.3541 13.8222 30.0139 13.2166 29.4083C12.611 28.8027 12.2708 27.9813 12.2708 27.1249Z" fill="black"/>
</svg>
