<?xml version="1.0" encoding="utf-8"?>
<!-- Uploaded to: SVG Repo, www.svgrepo.com, Generator: SVG Repo Mixer Tools -->
<svg width="800px" height="800px" viewBox="0 -2 40 40" xmlns="http://www.w3.org/2000/svg">
  <g id="Group_4" data-name="Group 4" transform="translate(-405 -125)">
    <path id="Path_5" data-name="Path 5" d="M419,129a2,2,0,0,0,0-4H407a2,2,0,0,0,0,4h4v16h-4a2.006,2.006,0,0,0-2,2v8a3.549,3.549,0,0,0,1.8,2.9l4.4,2.2a4.777,4.777,0,0,0,1.8.4,3.425,3.425,0,0,0,1.8-.4l4.4-2.2A3.549,3.549,0,0,0,421,155v-8a2.006,2.006,0,0,0-2-2h-4V129Zm-2,20v5.5l-3.9,1.9h-.2l-3.9-1.9V149Z" fill="#666"/>
    <path id="Path_6" data-name="Path 6" d="M440.3,152H437V127a2,2,0,0,0-4,0v25h-3.3c-4.1,0-4.7,1.7-4.7,2.7V159a2,2,0,0,0,4,0v-3h4v3a2,2,0,0,0,4,0v-3h4v3a2,2,0,0,0,4,0v-4.3C445,153.7,444.4,152,440.3,152Z" fill="#666"/>
  </g>
</svg>