<?xml version="1.0" ?>
<!-- Uploaded to: SVG Repo, www.svgrepo.com, Generator: SVG Repo Mixer Tools -->
<svg fill="#000000" width="800px" height="800px" viewBox="0 0 56 56" id="Layer_1" version="1.1" xml:space="preserve" xmlns="http://www.w3.org/2000/svg" xmlns:xlink="http://www.w3.org/1999/xlink">
<g>
<path d="M20.8,14.1c-0.1-0.2-0.2-0.3-0.4-0.4c0.3-0.4,0.4-0.8,0.4-1.3V7c0-1.2-1-2.2-2.2-2.2h-5.9c-1.2,0-2.2,1-2.2,2.2v5.4   c0,0.5,0.2,0.9,0.4,1.3c-0.1,0.1-0.2,0.2-0.3,0.4l-4.1,5.7c-1,1.3-1.5,3-1.5,4.7v26.2c0,1.3,1,2.3,2.3,2.3h16.9   c1.2,0,2.3-1.1,2.3-2.3V24.5c0-1.7-0.5-3.3-1.5-4.7L20.8,14.1z M12.5,7c0-0.1,0.1-0.2,0.2-0.2h5.9c0.1,0,0.2,0.1,0.2,0.2v5.4   c0,0.1-0.1,0.2-0.2,0.2H18h-4.6h-0.7c-0.1,0-0.2-0.1-0.2-0.2V7z M24.4,50.7c0,0.2-0.1,0.3-0.3,0.3H7.2c-0.1,0-0.3-0.1-0.3-0.3V24.5   c0-1.3,0.4-2.5,1.1-3.5l4.1-5.7c0.3-0.4,0.7-0.6,1.2-0.6H18c0.5,0,0.9,0.2,1.2,0.6l4.1,5.7c0.7,1,1.1,2.2,1.1,3.5V50.7z"/>
<path d="M24.2,7.7c0,0,0.1,0,0.1,0l21-2.7c0.5-0.1,0.9-0.6,0.9-1.1C46.1,3.3,45.6,2.9,45,3l-21,2.7c-0.5,0.1-0.9,0.6-0.9,1.1   C23.3,7.3,23.7,7.7,24.2,7.7z"/>
<path d="M45.3,14.1l-21-2.7c-0.5-0.1-1,0.3-1.1,0.9c-0.1,0.5,0.3,1,0.9,1.1l21,2.7c0,0,0.1,0,0.1,0c0.5,0,0.9-0.4,1-0.9   C46.2,14.6,45.8,14.1,45.3,14.1z"/>
<path d="M50.1,8.7H24.9c-0.6,0-1,0.4-1,1s0.4,1,1,1h25.1c0.6,0,1-0.4,1-1S50.6,8.7,50.1,8.7z"/>
<path d="M19.3,19.7c-0.3-0.5-0.9-0.6-1.4-0.3c-0.5,0.3-0.6,0.9-0.3,1.4l1.3,2c0.8,1.3,1.3,2.9,1.3,4.4v19.7c0,0.6,0.4,1,1,1   s1-0.4,1-1V27.1c0-2-0.6-3.9-1.6-5.5L19.3,19.7z"/>
</g>
</svg>